<svg preserveAspectRatio="none" overflow="visible" style="display: block;" width="22" height="22" viewBox="0 0 22 22" fill="none" xmlns="http://www.w3.org/2000/svg">
<g id="gallery">
<path id="Vector" d="M8.25 20.1667H13.75C18.3333 20.1667 20.1667 18.3333 20.1667 13.75V8.25C20.1667 3.66667 18.3333 1.83333 13.75 1.83333H8.25C3.66667 1.83333 1.83333 3.66667 1.83333 8.25V13.75C1.83333 18.3333 3.66667 20.1667 8.25 20.1667Z" stroke="white" stroke-linecap="round" stroke-linejoin="round"/>
<path id="Vector_2" d="M8.25 9.16667C9.26252 9.16667 10.0833 8.34586 10.0833 7.33333C10.0833 6.32081 9.26252 5.5 8.25 5.5C7.23748 5.5 6.41667 6.32081 6.41667 7.33333C6.41667 8.34586 7.23748 9.16667 8.25 9.16667Z" stroke="white" stroke-linecap="round" stroke-linejoin="round"/>
<path id="Vector_3" d="M2.44754 17.3713L6.96671 14.3372C7.69087 13.8513 8.73587 13.9063 9.38671 14.4655L9.68921 14.7313C10.4042 15.3455 11.5592 15.3455 12.2742 14.7313L16.0875 11.4588C16.8025 10.8447 17.9575 10.8447 18.6725 11.4588L20.1667 12.7422" stroke="white" stroke-linecap="round" stroke-linejoin="round"/>
<path id="Vector_4" opacity="0" d="M21.5 0.5V21.5H0.5V0.5H21.5Z" stroke="white"/>
</g>
</svg>
